<svg width="76" height="76" viewBox="0 0 76 76" fill="none" xmlns="http://www.w3.org/2000/svg">
<path fill-rule="evenodd" clip-rule="evenodd" d="M37.7867 16.2918C32.3365 16.2918 26.8989 18.1501 22.4706 21.8659C19.8053 24.1023 17.7454 26.8235 16.3148 29.8033C16.1163 29.7844 15.9231 29.7414 15.7192 29.7414C12.1594 29.7414 9.29309 32.6076 9.29309 36.1673V44.1094C9.29309 47.6691 12.1594 50.5354 15.7192 50.5354C15.9231 50.5354 16.1163 50.4912 16.3148 50.4734C16.5709 51.0043 16.836 51.5313 17.1347 52.0491C18.3023 54.133 21.4218 52.3488 20.2172 50.2857C15.2851 41.7429 17.1952 30.9177 24.7515 24.5771C32.308 18.2364 43.2839 18.2364 50.8403 24.5771C58.3968 30.9177 60.3069 41.7427 55.3747 50.2857L55.3215 50.3742L55.286 50.4626C55.286 50.4626 52.8906 55.7619 48.1868 55.7619L42.2325 55.7086C41.6741 54.8932 40.7805 54.3253 39.7134 54.3253H35.8752C34.1542 54.3253 32.7698 55.7144 32.7698 57.4354C32.7698 58.4969 33.4434 59.303 34.9848 59.303L48.1867 59.3041C55.2454 59.3041 58.2982 52.3743 58.4372 52.0536V52.0347C58.7332 51.5215 58.9938 50.9945 59.2482 50.4683C59.4556 50.4872 59.6577 50.5303 59.8713 50.5303C63.4311 50.5303 66.2974 47.6641 66.2974 44.1043V36.1622C66.2974 32.6025 63.4311 29.7363 59.8713 29.7363C59.6656 29.7363 59.4716 29.7703 59.2712 29.7982C57.844 26.8182 55.7902 24.0973 53.1246 21.8607C48.6965 18.145 43.236 16.2866 37.7856 16.2866L37.7867 16.2918ZM30.0417 27.582C28.6583 27.4916 27.3947 27.7841 26.2905 28.9469C23.3461 32.0468 21.5271 36.266 21.5271 40.7592C21.5271 44.4654 22.7657 48.6183 24.8523 48.7699C27.8249 48.9861 32.5159 47.034 37.7959 47.034C43.3913 47.034 48.3289 49.2243 51.2571 48.7058C53.0317 48.3921 54.0694 44.1501 54.0694 40.7592C54.0694 36.266 52.2459 32.0468 49.3014 28.9469C46.3569 25.8469 42.2891 28.9469 37.7959 28.9469C34.9877 28.9469 32.3472 27.7333 30.0417 27.582ZM29.3823 35.2217C31.0237 35.2223 32.3543 36.5528 32.3548 38.1943C32.3543 39.8358 31.0237 41.1662 29.3823 41.1668C27.7408 41.1662 26.4103 39.8358 26.4097 38.1943C26.4103 36.5528 27.7408 35.2223 29.3823 35.2217ZM46.2099 35.2217C47.8514 35.2223 49.1819 36.5528 49.1825 38.1943C49.1819 39.8358 47.8514 41.1662 46.2099 41.1668C44.5684 41.1662 43.238 39.8358 43.2374 38.1943C43.238 36.5528 44.5684 35.2223 46.2099 35.2217Z" fill="white"/>
</svg>
