<svg width="22" height="23" viewBox="0 0 22 23" fill="none" xmlns="http://www.w3.org/2000/svg">
<path fill-rule="evenodd" clip-rule="evenodd" d="M11.4277 22.4043C11.4277 22.4043 0.877686 11.1729 0.877686 7.18486C0.877686 2.93868 2.80702 0.884277 6.81206 0.884277C8.79019 0.884277 11.4277 4.35586 11.4277 4.35586C11.4277 4.35586 14.0652 0.884277 16.0433 0.884277C20.0484 0.884277 21.9777 2.93733 21.9777 7.18486C21.9777 11.1729 11.4277 22.4043 11.4277 22.4043ZM16.0433 2.27317C15.0028 2.27317 11.4277 5.74213 11.4277 5.74213C11.4277 5.74213 7.85124 2.27317 6.81206 2.27317C3.30682 2.27317 2.19644 3.78857 2.19644 7.36918C2.19644 10.7347 11.4277 20.3201 11.4277 20.3201C11.4277 20.3201 20.6589 10.7347 20.6589 7.36918C20.6589 3.78857 19.5485 2.27317 16.0433 2.27317Z" fill="#2A2A2A"/>
</svg>
